Coordinates
version=1
nRows=22
nColumns=24
inDegrees=yes

Units are S.I. units (second, meters, Newtons, ...)
Angles are in degrees.

endheader
time	pelvis_tilt	pelvis_list	pelvis_rotation	pelvis_tx	pelvis_ty	pelvis_tz	hip_flexion_r	hip_adduction_r	hip_rotation_r	knee_angle_r	ankle_angle_r	subtalar_angle_r	mtp_angle_r	hip_flexion_l	hip_adduction_l	hip_rotation_l	knee_angle_l	ankle_angle_l	subtalar_angle_l	mtp_angle_l	lumbar_extension	lumbar_bending	lumbar_rotation
      0.55000000	      4.78839649	      2.08257070	      7.42958806	     -0.91589375	      1.02305868	      0.29898897	     16.66401177	     -1.58053718	    -12.62206582	      4.37464383	      3.78897337	      1.64560735	      3.84101834	    -18.71387320	      5.41927727	     11.59162538	     -8.11907234	     13.20592318	     -8.17744719	     -3.51213146	     -8.53670732	     -4.14735331	     -4.55621911
      0.55416667	      4.83444621	      1.92591754	      7.55686040	     -0.91021989	      1.02274796	      0.29883614	     16.66042319	     -1.38848007	    -12.54714889	      3.71484869	      3.89781453	      1.52919470	      3.84993111	    -18.88192396	      5.21044854	     11.60701457	     -8.53100406	     13.26506014	     -8.17136947	     -3.51461535	     -8.51619195	     -3.92179745	     -4.56734159
      0.55833333	      4.87951426	      1.76288361	      7.67721678	     -0.90448611	      1.02245033	      0.29871434	     16.64736920	     -1.18442425	    -12.43028245	      3.05407185	      3.91772312	      1.32351367	      3.88394078	    -19.02878440	      4.99026697	     11.53153276	     -8.98057170	     13.37459934	     -7.97064982	     -3.51955468	     -8.51437080	     -3.69340063	     -4.72743795
      0.56250000	      4.92095463	      1.61345964	      7.80505469	     -0.89874570	      1.02217507	      0.29858296	     16.63855080	     -0.99801322	    -12.31700403	      2.36732856	      3.93752954	      1.11367950	      3.89446391	    -19.17148944	      4.79042294	     11.56485735	     -9.43662964	     13.36805275	     -7.99938734	     -3.51935937	     -8.50850237	     -3.49378866	     -4.74675597
      0.56666667	      4.96298623	      1.44942218	      7.91488095	     -0.89285188	      1.02191214	      0.29850836	     16.57443106	     -0.77373583	    -12.01527853	      1.78462355	      3.77277247	      0.54979436	      3.95224088	    -19.30899845	      4.56834171	     11.47329858	     -9.90832907	     13.44170115	     -7.81235534	     -3.50621982	     -8.45149849	     -3.25730401	     -4.93356307
      0.57083333	      5.02618205	      1.29300539	      8.02583987	     -0.88695551	      1.02170290	      0.29843855	     16.49135537	     -0.55464856	    -11.74825801	      1.18683200	      3.60863885	      0.04457369	      4.02208770	    -19.46533405	      4.35416263	     11.44209025	    -10.39074178	     13.45079325	     -7.71344401	     -3.48096619	     -8.43246668	     -3.03731632	     -5.00931724
      0.57500000	      4.62085853	      1.09350879	      7.94330243	     -0.88046127	      1.02087572	      0.29842515	     16.95033048	     -0.31912786	    -11.29802301	      0.49888553	      3.41836037	     -0.42859311	      4.09414088	    -19.15973052	      4.24254233	     11.24839323	    -10.84716661	     13.34934739	     -7.72917181	     -3.45080405	     -7.76509935	     -2.84930684	     -4.92432813
      0.57916667	      4.66902311	      0.94996882	      8.09480904	     -0.87461343	      1.02072812	      0.29837326	     16.85277752	     -0.11315730	    -10.98346577	     -0.02937226	      3.08657067	     -1.12233837	      4.17242626	    -19.25635383	      4.02753825	     11.25253545	    -11.40295549	     13.33064917	     -7.59500417	     -3.39809355	     -7.74006402	     -2.63474034	     -5.06033642
      0.58333333	      4.68604743	      0.82364888	      8.22169495	     -0.86868662	      1.02055996	      0.29838337	     16.78647282	      0.08099756	    -10.64698101	     -0.54896340	      2.70950800	     -1.82489651	      4.26384250	    -19.31462229	      3.83896203	     11.21525673	    -11.97299357	     13.23565825	     -7.48672163	     -3.33025131	     -7.66044311	     -2.47420995	     -5.17897805
      0.58750000	      4.69199918	      0.69127497	      8.33773674	     -0.86268593	      1.02040048	      0.29844633	     16.71636374	      0.29063255	    -10.28193096	     -1.02612495	      2.24892553	     -2.58408261	      4.36706227	    -19.35547305	      3.64361617	     11.15720150	    -12.55177558	     13.11916584	     -7.35793002	     -3.24083958	     -7.55698270	     -2.30945595	     -5.28405745
      0.59166667	      4.75635004	      0.56123055	      8.43843893	     -0.85664193	      1.02034405	      0.29856559	     16.56467210	      0.51868856	     -9.88250405	     -1.45275318	      1.71817305	     -3.39419243	      4.49171901	    -19.45352374	      3.44010446	     11.05765818	    -13.14234609	     12.97896359	     -7.20672382	     -3.11884684	     -7.52070209	     -2.14413494	     -5.37385019
      0.59583333	      4.76816253	      0.44269667	      8.51368036	     -0.85053105	      1.02022476	      0.29878242	     16.46926092	      0.74075586	     -9.43124050	     -1.87357466	      1.17254857	     -4.28697043	      4.71351065	    -19.48642644	      3.25545464	     10.91009789	    -13.75015305	     12.80377565	     -7.00631243	     -2.88474711	     -7.41236491	     -2.03591537	     -5.42080254
      0.60000000	      4.77869239	      0.30628155	      8.59785361	     -0.84437202	      1.02014288	      0.29897662	     16.35862043	      0.97908675	     -9.01885201	     -2.24563780	      0.51565265	     -5.13178089	      4.88674920	    -19.50474514	      3.05168625	     10.78440236	    -14.38061767	     12.61409320	     -6.87005584	     -2.67671757	     -7.29124505	     -1.88259905	     -5.51381621
      0.60416667	      4.02602312	     -0.42695928	      8.47895334	     -0.83698194	      1.01815264	      0.29915527	     17.12477500	      1.77196636	     -8.46792189	     -2.63111130	     -0.17447461	     -6.10664720	      5.12590814	    -18.63642152	      2.38273820	      9.89203686	    -15.20280160	     12.89536890	     -5.99446520	     -2.27925287	     -5.99173356	     -1.12442401	     -5.36104656
      0.60833333	      4.04670238	     -0.51655498	      8.62927945	     -0.83097839	      1.01818759	      0.29935222	     16.99807978	      1.94566425	     -8.13601856	     -2.97998071	     -0.91179992	     -6.97552534	      5.29346642	    -18.59810858	      2.19451433	      9.80468813	    -15.93337304	     12.62999060	     -5.81246954	     -1.97901118	     -5.90460665	     -1.04904844	     -5.53232059
      0.61250000	      4.09356183	     -0.60417958	      8.74029506	     -0.82489594	      1.01827938	      0.29963303	     16.83308552	      2.13543701	     -7.75484831	     -3.30873274	     -1.63168893	     -7.81696546	      5.48222679	    -18.58271874	      2.00659113	      9.64121916	    -16.67597205	     12.31057168	     -5.56441548	     -1.62633011	     -5.84340109	     -0.96648906	     -5.61601567
      0.61666667	      4.15080742	     -0.70500579	      8.83372050	     -0.81871764	      1.01841287	      0.29995838	     16.65630959	      2.34103377	     -7.45000964	     -3.63209545	     -2.37675232	     -8.52850360	      7.57271107	    -18.56809676	      1.79473917	      9.39967789	    -17.41884291	     11.86227979	     -5.26262615	      2.40370893	     -5.76913517	     -0.88601214	     -5.60817538
      0.62083333	      4.15883134	     -0.80139446	      8.90419316	     -0.81249682	      1.01850234	      0.30032311	     16.53139938	      2.54301311	     -7.06575353	     -3.96679627	     -3.04345238	     -9.30098202	      7.57502515	    -18.49385503	      1.60844147	      9.19621006	    -18.18501479	     11.42719290	     -5.06032697	      2.47819565	     -5.64044708	     -0.79240868	     -5.74692205
      0.62500000	      4.22436966	     -0.91175652	      8.95664347	     -0.80621624	      1.01869399	      0.30074544	     16.33382793	      2.77484986	     -6.69531469	     -4.27795801	     -3.71755800	    -10.03675613	      7.59732997	    -18.46223682	      1.38776196	      8.89390881	    -18.97515746	     10.99738727	     -4.71841423	      2.63715255	     -5.57335530	     -0.69361330	     -5.76673771
      0.62916667	      4.25323969	     -1.02227628	      9.00079811	     -0.79991774	      1.01885835	      0.30119792	     16.18379964	      2.99986163	     -6.34168092	     -4.61238970	     -4.34807365	    -10.73035573	      7.63497760	    -18.36699689	      1.16914088	      8.56883604	    -19.80703413	     10.52409209	     -4.36566315	      2.88050949	     -5.45105418	     -0.60478354	     -5.79033573
      0.63333333	      4.30152824	     -1.13185933	      9.03305967	     -0.79358166	      1.01908622	      0.30168468	     16.01136133	      3.22758004	     -6.00920015	     -4.95407745	     -4.92933234	    -11.36408595	      7.68181236	    -18.27595361	      0.94199175	      8.20050568	    -20.65430001	      9.98836512	     -4.00139930	      3.19700389	     -5.35169781	     -0.51246692	     -5.80210014
      0.63750000	      4.35879581	     -1.23841184	      9.05685589	     -0.78723830	      1.01935193	      0.30219496	     15.83355445	      3.45094717	     -5.69978286	     -5.31523186	     -5.44785368	    -11.91998752	      8.29233188	    -18.17831692	      0.71258056	      7.82379391	    -21.51190173	      9.25955936	     -3.70606031	      7.43682758	     -5.26471170	     -0.43495577	     -5.78009018
